<svg id="visual" viewBox="0 0 960 540" width="960" height="540" xmlns="http://www.w3.org/2000/svg" xmlns:xlink="http://www.w3.org/1999/xlink" version="1.1"><path d="M0 311L40 317.2C80 323.3 160 335.7 240 322.2C320 308.7 400 269.3 480 256.3C560 243.3 640 256.7 720 261.2C800 265.7 880 261.3 920 259.2L960 257L960 541L920 541C880 541 800 541 720 541C640 541 560 541 480 541C400 541 320 541 240 541C160 541 80 541 40 541L0 541Z" fill="#408c3e"></path><path d="M0 280L40 278.2C80 276.3 160 272.7 240 292.8C320 313 400 357 480 373.7C560 390.3 640 379.7 720 376.8C800 374 880 379 920 381.5L960 384L960 541L920 541C880 541 800 541 720 541C640 541 560 541 480 541C400 541 320 541 240 541C160 541 80 541 40 541L0 541Z" fill="#287227"></path><path d="M0 466L40 447.8C80 429.7 160 393.3 240 391.3C320 389.3 400 421.7 480 424.5C560 427.3 640 400.7 720 393.7C800 386.7 880 399.3 920 405.7L960 412L960 541L920 541C880 541 800 541 720 541C640 541 560 541 480 541C400 541 320 541 240 541C160 541 80 541 40 541L0 541Z" fill="#185c1a"></path><path d="M0 461L40 454.3C80 447.7 160 434.3 240 426.5C320 418.7 400 416.3 480 429.2C560 442 640 470 720 472.3C800 474.7 880 451.3 920 439.7L960 428L960 541L920 541C880 541 800 541 720 541C640 541 560 541 480 541C400 541 320 541 240 541C160 541 80 541 40 541L0 541Z" fill="#144a18"></path></svg>